<svg id="svg" version="1.1" xmlns="http://www.w3.org/2000/svg" xmlns:xlink="http://www.w3.org/1999/xlink" width="400" height="400" viewBox="0, 0, 400,400"><g id="svgg"><path id="path0" d="M250.500 188.934 C 244.799 190.915,240.759 197.244,238.332 208.000 C 237.939 209.742,237.510 211.617,237.380 212.167 C 237.164 213.077,236.989 213.186,235.440 213.376 C 231.870 213.815,227.656 216.820,224.316 221.310 L 223.466 222.453 222.692 220.331 C 220.253 213.639,212.199 211.320,205.638 215.420 C 201.972 217.712,196.677 225.948,196.662 229.384 C 196.653 231.462,194.675 233.667,192.820 233.667 C 191.865 233.667,191.667 233.115,191.667 230.461 L 191.667 228.310 194.057 225.905 C 195.372 224.582,196.617 223.275,196.824 223.000 C 197.031 222.725,197.877 221.675,198.705 220.667 C 199.533 219.658,200.938 217.783,201.827 216.500 C 202.717 215.217,203.693 213.923,203.997 213.625 C 206.478 211.192,210.003 201.163,209.997 196.556 C 209.988 190.153,204.263 186.924,197.942 189.759 C 196.902 190.226,195.977 190.533,195.886 190.442 C 195.617 190.172,191.216 194.699,190.067 196.428 C 187.833 199.789,184.323 208.916,182.668 215.667 C 181.231 221.531,181.227 221.543,181.084 220.833 C 180.357 217.233,178.497 215.108,175.072 213.968 C 165.624 210.825,155.787 220.263,156.071 232.199 C 156.190 237.212,155.412 238.333,151.813 238.333 L 150.604 238.333 150.825 236.583 C 151.175 233.805,152.055 230.435,154.238 223.500 C 154.700 222.033,155.077 220.608,155.076 220.333 C 155.075 220.058,155.583 218.127,156.204 216.041 C 156.825 213.955,157.334 212.005,157.335 211.708 C 157.337 211.410,157.576 210.717,157.867 210.167 C 159.043 207.946,160.008 200.177,159.361 198.133 C 159.193 197.602,158.971 196.778,158.868 196.303 C 158.765 195.828,158.230 194.928,157.679 194.303 C 157.128 193.678,156.675 193.061,156.672 192.933 C 156.658 192.331,153.597 190.699,151.501 190.176 C 146.907 189.030,143.088 190.320,138.785 194.473 L 136.296 196.875 135.500 195.134 C 134.675 193.331,133.422 191.843,131.873 190.828 C 130.803 190.128,127.333 189.263,127.333 189.697 C 127.333 189.864,126.610 190.000,125.726 190.000 C 124.842 190.000,123.380 190.238,122.476 190.528 C 121.573 190.819,120.608 191.129,120.333 191.217 C 120.058 191.304,119.794 191.364,119.747 191.348 C 119.350 191.219,117.456 192.630,115.775 194.305 C 113.646 196.428,113.333 196.629,113.333 195.875 C 113.333 194.918,111.521 192.232,110.258 191.317 C 102.242 185.510,87.996 193.628,88.001 204.000 C 88.005 210.534,97.219 213.969,98.512 207.918 C 99.149 204.933,102.070 200.259,102.537 201.476 C 103.100 202.944,101.475 211.478,99.360 218.167 C 98.838 219.817,98.005 222.517,97.509 224.167 C 97.013 225.817,96.481 227.467,96.327 227.833 C 96.173 228.200,95.723 229.625,95.326 231.000 C 94.618 233.455,94.349 234.323,92.336 240.653 C 91.061 244.662,91.026 244.414,93.083 245.964 C 99.018 250.436,103.560 248.718,105.769 241.167 C 107.254 236.088,108.078 233.444,108.315 232.989 C 108.462 232.708,108.695 231.963,108.833 231.333 C 108.972 230.704,109.206 229.959,109.355 229.678 C 109.504 229.397,110.004 228.042,110.466 226.667 C 111.362 224.002,113.474 218.274,113.968 217.167 C 118.870 206.194,121.646 202.333,124.635 202.333 C 126.382 202.333,125.720 209.452,123.293 216.759 C 122.941 217.818,122.436 219.468,122.169 220.426 C 121.903 221.383,121.393 223.142,121.037 224.333 C 120.680 225.525,119.918 228.150,119.344 230.167 C 118.770 232.183,118.175 234.133,118.022 234.500 C 117.869 234.867,117.189 237.022,116.512 239.290 L 115.279 243.412 116.390 244.569 C 119.663 247.980,124.058 248.424,126.683 245.608 C 128.066 244.126,128.288 243.532,131.022 234.000 C 132.152 230.061,135.382 220.533,135.707 220.183 C 135.868 220.009,136.000 219.664,136.000 219.416 C 136.000 218.033,141.076 207.275,142.911 204.770 C 145.336 201.458,147.529 200.934,147.177 203.750 C 146.817 206.629,145.619 211.748,144.506 215.167 C 144.267 215.900,143.666 217.850,143.172 219.500 C 142.677 221.150,142.076 223.100,141.836 223.833 C 141.371 225.255,140.704 227.718,139.761 231.500 C 138.859 235.114,138.931 241.734,139.892 243.500 C 143.909 250.883,154.926 251.781,161.838 245.288 L 163.510 243.718 166.395 244.421 C 170.315 245.375,174.547 244.654,179.250 242.231 C 180.029 241.830,180.667 241.403,180.667 241.283 C 180.667 241.163,181.132 240.771,181.701 240.411 L 182.735 239.756 184.047 241.180 C 184.769 241.963,185.916 242.853,186.597 243.158 C 187.277 243.462,188.158 243.870,188.555 244.064 C 190.162 244.847,195.294 244.233,197.833 242.952 L 200.167 241.776 201.889 242.880 C 208.065 246.840,216.361 244.379,220.234 237.439 C 220.891 236.260,221.361 235.713,221.458 236.013 C 221.545 236.281,221.790 237.065,222.002 237.755 C 223.901 243.925,232.339 246.679,237.933 242.954 C 239.538 241.886,240.076 241.788,240.636 242.463 C 242.318 244.490,249.489 244.977,253.291 243.323 L 255.081 242.544 256.624 243.338 C 257.472 243.775,258.215 244.163,258.274 244.201 C 258.332 244.239,256.661 245.971,254.559 248.051 C 246.991 255.540,245.297 261.293,249.262 266.037 C 251.363 268.551,258.863 269.133,263.000 267.103 C 267.230 265.026,270.355 261.360,272.321 256.167 C 272.738 255.067,273.188 253.942,273.323 253.667 C 273.457 253.392,273.990 251.485,274.506 249.430 C 275.022 247.375,275.607 245.650,275.806 245.597 C 276.253 245.477,287.358 238.911,289.119 237.726 C 292.725 235.298,293.016 230.727,289.708 228.480 C 287.449 226.944,284.814 227.623,279.710 231.052 C 277.841 232.309,277.788 232.216,278.492 228.923 C 280.421 219.901,280.514 219.133,279.858 217.590 C 278.961 215.478,276.668 214.533,273.726 215.063 C 270.622 215.622,269.510 217.262,267.668 224.000 C 266.252 229.177,265.072 232.153,264.072 233.070 L 263.240 233.833 263.447 231.333 C 263.673 228.618,264.462 225.564,265.808 222.199 C 268.121 216.417,263.281 212.320,258.008 215.598 L 256.424 216.583 258.375 212.723 C 260.318 208.879,261.345 206.067,261.501 204.167 C 261.546 203.617,261.739 201.889,261.930 200.328 C 262.579 195.006,261.433 192.178,257.500 189.398 C 255.817 188.208,253.107 188.028,250.500 188.934 M204.672 191.941 C 210.921 195.213,204.861 211.244,192.868 223.167 L 188.845 227.167 188.719 229.775 C 188.380 236.834,191.678 238.651,197.317 234.512 L 198.896 233.353 199.304 230.435 C 199.786 226.992,200.600 224.897,202.517 222.167 C 208.771 213.259,220.456 214.705,220.408 224.381 L 220.397 226.595 221.615 226.269 C 223.727 225.702,225.620 224.369,227.038 222.449 C 230.385 217.918,233.264 216.150,237.211 216.202 L 239.588 216.233 240.310 212.367 C 243.276 196.498,249.801 188.290,256.557 191.931 C 262.960 195.381,259.786 207.362,247.958 224.382 C 243.953 230.145,243.831 230.520,244.843 233.927 C 245.437 235.927,246.312 236.667,248.087 236.667 C 250.484 236.667,254.000 234.292,254.000 232.674 C 254.000 228.136,257.125 219.571,259.324 218.083 C 262.872 215.682,264.552 218.148,262.561 222.833 C 258.500 232.387,260.744 240.380,266.000 235.083 C 267.788 233.281,268.439 231.756,270.233 225.167 C 271.969 218.793,272.728 217.667,275.285 217.667 C 277.785 217.667,277.839 218.639,275.834 227.667 C 274.442 233.937,273.703 237.926,273.899 238.122 C 273.973 238.195,275.639 237.169,277.600 235.841 C 286.133 230.064,287.861 229.454,288.866 231.860 C 289.726 233.919,289.295 234.321,280.671 239.499 L 272.843 244.200 272.147 247.183 C 269.176 259.926,264.318 265.673,256.523 265.665 C 246.090 265.653,248.773 254.764,261.380 245.950 C 263.046 244.786,264.974 243.433,265.665 242.943 C 266.705 242.206,267.070 241.613,267.777 239.511 L 268.631 236.970 266.995 238.441 C 263.329 241.737,259.106 242.313,256.515 239.869 L 255.344 238.765 254.110 239.603 C 249.157 242.969,243.371 242.162,240.224 237.667 C 239.762 237.006,239.599 236.937,239.439 237.333 C 238.865 238.752,236.104 240.951,234.205 241.503 C 228.527 243.154,224.000 239.150,224.000 232.477 L 224.000 230.074 221.677 230.944 C 219.635 231.709,219.328 231.937,219.141 232.824 C 217.443 240.880,207.575 244.734,202.094 239.481 L 200.543 237.995 199.355 238.815 C 193.273 243.009,187.055 242.499,184.551 237.601 L 183.593 235.729 181.628 237.312 C 176.219 241.671,169.403 243.121,164.618 240.930 L 162.772 240.085 161.573 241.564 C 157.814 246.199,152.073 247.932,146.896 245.995 C 140.509 243.605,140.250 238.416,145.650 221.054 C 150.911 204.142,151.254 200.079,147.499 199.137 C 141.734 197.690,134.485 211.145,127.280 236.667 C 124.977 244.826,123.373 246.306,119.682 243.678 C 118.366 242.741,118.115 244.010,122.518 229.333 C 128.261 210.189,128.989 206.877,128.289 203.089 C 127.249 197.458,121.455 198.440,116.999 205.002 C 113.302 210.446,106.032 228.829,103.167 239.980 C 101.863 245.056,99.795 246.504,96.358 244.749 C 94.195 243.645,93.805 245.571,100.659 223.500 C 106.141 205.850,106.820 197.996,102.865 198.001 C 100.553 198.004,97.948 200.950,96.334 205.390 C 95.305 208.218,94.982 208.545,93.728 208.025 C 86.086 204.860,94.018 192.500,103.691 192.500 C 110.281 192.500,112.482 196.715,110.534 205.605 C 109.700 209.413,109.855 209.333,112.157 204.773 C 116.677 195.818,120.799 192.315,126.785 192.341 C 132.165 192.364,135.105 198.183,133.559 205.750 C 133.189 207.557,133.709 207.275,134.618 205.177 C 140.009 192.721,152.982 187.971,156.157 197.291 C 157.455 201.098,156.515 206.409,151.864 221.562 C 147.310 236.396,146.962 239.144,149.437 240.705 C 151.646 242.098,155.422 241.073,158.360 238.283 L 159.886 236.833 159.375 235.667 C 157.894 232.291,159.017 226.101,161.870 221.917 C 168.219 212.604,181.104 215.375,178.306 225.452 C 177.414 228.665,170.248 233.289,166.103 233.327 C 165.042 233.336,164.915 233.802,165.701 234.801 C 168.295 238.098,175.331 237.074,180.713 232.614 C 181.563 231.910,182.403 231.333,182.579 231.333 C 182.755 231.333,182.994 229.780,183.110 227.882 C 184.392 206.934,196.083 187.445,204.672 191.941 M197.995 198.877 C 195.322 201.293,191.164 211.787,189.845 219.449 C 189.550 221.164,189.835 220.934,192.648 217.192 C 198.163 209.854,201.079 204.003,201.134 200.167 C 201.176 197.178,200.283 196.811,197.995 198.877 M251.249 198.191 C 248.838 199.499,246.614 206.943,244.856 219.583 C 244.563 221.688,244.936 221.355,247.475 217.241 C 254.325 206.143,256.460 195.364,251.249 198.191 M252.996 223.750 C 252.471 225.262,251.859 227.814,251.636 229.421 C 251.252 232.194,251.175 232.377,250.121 233.028 C 247.605 234.583,246.105 232.079,247.936 229.380 C 248.677 228.287,251.432 224.288,253.076 221.917 C 254.043 220.523,254.032 220.765,252.996 223.750 M169.500 221.856 C 166.454 223.437,162.750 230.650,165.417 229.808 C 169.451 228.534,173.446 225.764,173.840 223.968 C 174.338 221.701,171.996 220.561,169.500 221.856 M237.012 221.721 C 230.623 223.575,227.131 236.333,233.013 236.333 C 236.137 236.333,238.917 229.775,239.157 221.838 C 239.171 221.374,238.360 221.330,237.012 221.721 M209.760 222.315 C 204.272 225.706,203.735 236.667,209.057 236.667 C 211.909 236.667,215.985 231.426,214.145 230.125 C 211.723 228.411,211.337 226.736,212.851 224.505 C 214.506 222.066,212.483 220.632,209.760 222.315 M235.296 228.086 C 234.795 232.252,232.725 235.340,233.084 231.387 C 233.275 229.274,234.739 226.000,235.492 226.000 C 235.523 226.000,235.434 226.939,235.296 228.086 M180.015 229.305 C 179.811 229.687,179.490 230.000,179.302 230.000 C 178.965 230.000,179.123 229.572,179.766 228.742 C 180.260 228.104,180.440 228.510,180.015 229.305 M209.333 228.690 C 209.333 228.886,209.781 229.697,210.329 230.493 L 211.324 231.940 210.334 232.999 C 208.691 234.758,207.943 233.435,208.495 229.750 C 208.679 228.521,209.333 227.694,209.333 228.690 M264.137 248.945 C 259.746 252.143,255.091 258.635,255.987 260.310 C 257.796 263.689,263.238 257.795,265.156 250.380 C 265.821 247.807,265.779 247.748,264.137 248.945 " stroke="none" fill="#040885" fill-rule="evenodd"></path><path id="path1" d="M251.205 191.880 C 246.239 193.405,242.224 201.456,240.257 213.833 L 239.833 216.500 237.666 216.391 C 233.635 216.187,230.471 217.986,227.476 222.183 C 225.899 224.393,223.481 226.120,221.377 226.541 L 220.333 226.750 220.333 224.750 C 220.333 210.383,200.939 215.834,199.483 230.611 C 199.264 232.830,199.156 233.082,197.972 234.152 C 192.398 239.188,187.683 236.681,188.494 229.111 C 188.736 226.846,188.554 227.106,192.364 223.593 C 207.703 209.450,212.324 185.997,198.500 192.451 C 191.486 195.726,184.324 212.568,183.133 228.583 C 182.983 230.604,182.769 231.667,182.510 231.667 C 182.294 231.667,181.228 232.362,180.142 233.213 C 175.050 237.198,168.752 238.136,165.943 235.328 C 164.921 234.305,164.703 233.333,165.496 233.333 C 166.862 233.333,172.492 231.176,174.330 229.950 C 183.163 224.051,176.939 212.976,167.210 217.280 C 161.349 219.872,157.192 229.800,159.524 235.631 L 160.049 236.941 158.505 238.387 C 154.948 241.718,151.028 242.428,148.753 240.153 C 146.907 238.307,147.365 235.536,152.002 220.500 C 157.816 201.644,157.785 194.564,151.881 192.966 C 145.727 191.301,139.482 195.796,134.747 205.300 L 132.986 208.833 133.243 206.500 C 134.406 195.937,132.245 192.186,125.327 192.766 C 119.670 193.240,116.148 196.730,111.436 206.531 C 109.438 210.685,108.978 211.050,109.832 207.804 C 112.461 197.809,110.270 192.333,103.641 192.333 C 95.229 192.333,87.188 203.614,92.911 207.388 C 94.547 208.466,95.186 208.217,95.825 206.250 C 98.302 198.619,103.964 194.957,105.360 200.082 C 106.406 203.925,105.253 209.339,99.344 228.333 C 97.718 233.558,96.002 239.108,95.529 240.666 L 94.670 243.499 95.399 244.049 C 98.362 246.285,101.417 245.332,102.383 241.872 C 106.660 226.541,113.171 210.082,117.179 204.465 C 121.446 198.486,127.007 197.447,128.350 202.378 C 129.324 205.955,128.574 209.790,123.796 225.667 C 122.058 231.442,120.331 237.217,119.959 238.500 C 119.587 239.783,119.153 241.242,118.995 241.742 C 118.656 242.812,119.615 243.770,121.567 244.309 C 124.315 245.068,124.859 244.239,127.527 235.232 C 134.926 210.246,140.889 198.978,146.696 199.007 C 150.446 199.026,151.035 201.550,149.145 209.500 C 148.322 212.962,148.227 213.296,145.224 223.167 C 140.083 240.065,140.983 245.073,149.398 246.382 C 154.455 247.168,159.922 244.654,162.268 240.463 C 162.568 239.925,162.714 239.941,164.379 240.693 C 169.396 242.958,177.592 241.027,182.358 236.455 L 183.550 235.312 184.529 237.225 C 185.142 238.425,186.061 239.561,186.993 240.272 L 188.479 241.405 191.656 241.265 C 194.985 241.119,196.955 240.416,199.525 238.458 L 200.550 237.677 202.228 239.294 C 204.967 241.934,209.300 242.403,213.227 240.484 C 215.885 239.185,217.154 237.463,219.246 232.318 C 219.457 231.797,220.024 231.328,220.712 231.106 C 221.329 230.906,222.379 230.505,223.047 230.215 L 224.260 229.688 224.270 232.623 C 224.298 241.433,234.289 245.277,238.617 238.144 C 239.638 236.461,239.704 236.456,240.730 237.969 C 243.275 241.723,247.987 242.529,252.805 240.036 L 255.426 238.679 256.584 239.695 C 259.523 242.276,263.148 241.724,267.047 238.101 C 268.749 236.519,268.767 236.512,268.531 237.500 C 267.610 241.366,267.061 242.191,264.057 244.223 C 255.127 250.265,250.331 255.938,250.335 260.457 C 250.337 264.129,252.243 265.474,257.145 265.264 C 264.750 264.939,269.321 259.344,272.001 247.076 C 272.343 245.513,272.820 244.100,273.061 243.937 C 273.303 243.775,276.650 241.754,280.500 239.447 C 288.333 234.753,289.000 234.249,289.000 233.016 C 289.000 229.312,286.096 230.158,276.750 236.583 C 274.271 238.287,273.667 238.581,273.667 238.079 C 273.667 237.072,274.282 233.864,275.568 228.167 C 276.274 225.040,276.785 221.868,276.803 220.500 L 276.833 218.167 275.429 218.065 C 272.687 217.866,272.334 218.382,270.356 225.487 C 267.980 234.017,266.236 236.667,262.996 236.667 C 261.601 236.667,261.264 236.537,260.796 235.823 C 259.644 234.065,260.794 226.048,262.839 221.582 C 263.846 219.382,263.703 218.124,262.387 217.624 C 259.109 216.377,255.728 221.920,254.544 230.481 C 254.044 234.092,253.758 234.534,250.984 235.990 C 246.903 238.133,244.333 236.329,244.333 231.320 C 244.333 229.344,244.368 229.271,247.299 225.077 C 250.569 220.399,253.109 216.316,255.436 212.000 C 262.131 199.580,259.947 189.195,251.205 191.880 M201.335 198.169 C 203.090 200.283,198.237 210.571,191.547 218.920 C 189.468 221.514,189.220 221.284,190.042 217.530 C 192.801 204.936,198.641 194.923,201.335 198.169 M254.041 198.583 C 255.260 201.709,252.666 209.125,247.396 217.583 C 244.849 221.671,244.114 222.467,244.471 220.750 C 244.576 220.246,244.892 218.258,245.173 216.333 C 246.276 208.788,248.087 201.775,249.375 200.064 C 250.765 198.219,251.501 197.667,252.571 197.667 C 253.475 197.667,253.750 197.838,254.041 198.583 M173.530 221.691 C 175.737 223.524,172.536 227.200,166.763 229.462 C 164.415 230.382,164.245 230.323,164.542 228.691 C 165.454 223.665,170.847 219.465,173.530 221.691 M213.534 222.172 C 214.061 222.976,214.045 223.066,213.133 224.382 C 211.491 226.751,211.872 228.629,214.265 229.969 C 215.516 230.669,213.224 235.172,210.991 236.401 C 205.205 239.588,202.998 230.044,208.038 223.629 C 209.813 221.369,212.535 220.648,213.534 222.172 M239.330 222.083 C 239.312 225.965,237.201 233.776,235.788 235.189 C 230.136 240.842,227.651 230.149,233.192 224.016 C 235.350 221.627,239.338 220.372,239.330 222.083 M265.792 248.917 C 264.171 255.633,260.908 260.732,257.922 261.217 C 255.416 261.624,254.981 259.481,256.959 256.468 C 260.314 251.359,266.473 246.094,265.792 248.917 " stroke="none" fill="#04f9d3" fill-rule="evenodd"></path><path id="path2" d="M183.752 82.683 C 182.370 82.980,181.676 83.565,181.115 84.906 C 180.610 86.114,180.472 218.548,180.974 219.833 L 181.235 220.500 181.442 219.833 C 181.556 219.467,181.880 218.062,182.161 216.712 C 182.849 213.416,185.756 204.836,187.371 201.333 L 188.678 198.500 188.589 141.591 L 188.500 84.682 187.657 83.839 C 186.620 82.802,185.181 82.376,183.752 82.683 M197.971 113.760 C 195.896 115.158,196.010 112.867,196.005 153.250 C 196.002 173.646,196.081 190.333,196.180 190.333 C 196.279 190.333,196.991 190.010,197.763 189.614 C 198.669 189.150,200.024 188.839,201.583 188.737 L 204.000 188.579 203.995 152.373 C 203.991 124.080,203.899 115.987,203.574 115.343 C 203.018 114.245,201.119 113.000,200.000 113.000 C 199.504 113.000,198.591 113.342,197.971 113.760 M152.442 121.153 C 150.001 122.215,150.167 119.627,150.167 156.652 L 150.167 189.833 151.000 189.935 C 153.231 190.207,154.989 191.086,156.470 192.669 L 158.000 194.305 158.000 158.969 C 158.000 119.969,158.130 122.279,155.881 121.212 C 154.501 120.557,153.838 120.546,152.442 121.153 M213.440 128.871 C 211.208 129.972,211.333 127.484,211.333 170.650 C 211.333 212.923,211.247 210.868,213.072 212.146 C 214.048 212.830,216.638 212.816,217.628 212.123 C 219.394 210.886,219.333 212.368,219.333 170.393 L 219.333 131.432 218.573 130.304 C 217.269 128.368,215.475 127.868,213.440 128.871 M259.438 128.821 C 257.231 129.781,257.333 128.254,257.333 160.308 L 257.333 189.316 258.250 189.795 C 261.943 191.724,263.552 199.033,261.476 204.444 C 261.094 205.438,262.838 205.111,263.974 203.974 L 265.000 202.949 265.000 166.882 C 265.000 127.222,265.143 129.942,262.996 128.831 C 261.815 128.220,260.826 128.217,259.438 128.821 M121.438 144.317 C 119.615 145.429,119.667 144.708,119.667 168.793 L 119.667 191.297 121.435 190.689 C 122.408 190.354,124.133 189.973,125.269 189.841 L 127.333 189.601 127.333 167.875 C 127.333 144.024,127.437 145.255,125.330 144.165 C 124.024 143.489,122.711 143.541,121.438 144.317 M136.771 151.983 C 134.970 153.082,135.000 152.760,135.002 170.728 L 135.003 187.500 135.752 188.434 C 137.196 190.235,140.236 190.171,141.806 188.305 L 142.667 187.282 142.667 170.791 C 142.667 152.700,142.685 152.877,140.678 151.839 C 139.357 151.156,138.048 151.205,136.771 151.983 M167.699 151.755 C 165.423 152.925,165.500 152.261,165.500 170.667 C 165.500 187.015,165.511 187.300,166.199 188.226 C 167.638 190.165,170.655 190.286,172.358 188.474 L 173.167 187.613 173.259 170.974 C 173.339 156.503,173.284 154.205,172.837 153.340 C 171.928 151.583,169.494 150.832,167.699 151.755 M228.473 151.942 C 226.640 153.095,226.640 153.095,226.741 171.065 L 226.833 187.613 227.642 188.474 C 229.345 190.286,232.362 190.165,233.801 188.226 C 234.607 187.141,235.103 156.871,234.357 154.313 C 233.614 151.764,230.654 150.571,228.473 151.942 M274.438 151.983 C 273.854 152.340,273.216 152.929,273.021 153.294 C 272.504 154.260,272.532 186.674,273.051 187.813 C 274.225 190.390,278.775 190.390,279.949 187.813 C 280.609 186.364,280.483 154.028,279.813 153.072 C 278.615 151.362,276.245 150.882,274.438 151.983 M106.105 159.631 C 105.520 159.997,104.883 160.596,104.688 160.960 C 104.110 162.040,104.213 179.135,104.805 180.278 C 105.990 182.570,109.806 182.811,111.317 180.690 C 111.966 179.778,112.000 179.271,112.000 170.537 L 112.000 161.344 111.073 160.306 C 109.849 158.937,107.679 158.642,106.105 159.631 M243.921 159.503 C 242.108 160.524,242.000 161.157,242.000 170.791 L 242.000 179.616 242.844 180.619 C 244.557 182.654,247.600 182.626,249.135 180.560 C 249.869 179.572,250.385 166.418,249.834 162.729 C 249.396 159.796,246.351 158.134,243.921 159.503 M290.129 159.327 C 288.080 160.155,288.000 160.579,288.000 170.667 C 288.000 181.071,288.047 181.280,290.554 181.972 C 292.539 182.520,293.945 182.016,295.099 180.342 C 295.919 179.153,295.961 161.902,295.146 160.739 C 294.109 159.258,291.864 158.626,290.129 159.327 M157.405 212.500 C 157.170 213.417,156.597 215.410,156.132 216.929 C 155.115 220.248,155.192 220.690,156.585 219.518 C 157.847 218.456,158.071 217.483,157.935 213.667 L 157.833 210.833 157.405 212.500 M201.749 216.930 C 200.602 218.557,198.840 220.800,197.832 221.914 C 195.907 224.041,195.759 224.440,196.387 225.818 C 196.936 227.023,197.113 226.906,197.994 224.750 C 198.964 222.376,200.317 220.349,202.423 218.111 C 203.836 216.610,204.030 216.235,203.938 215.180 L 203.833 213.970 201.749 216.930 M181.583 240.705 L 180.667 241.389 180.667 248.394 C 180.667 257.127,181.264 258.667,184.651 258.667 C 187.995 258.667,188.667 257.222,188.667 250.026 L 188.667 244.353 186.863 243.500 C 185.871 243.030,184.521 242.051,183.864 241.323 C 183.206 240.595,182.631 240.005,182.584 240.011 C 182.538 240.016,182.088 240.329,181.583 240.705 " stroke="none" fill="#fbfbfb" fill-rule="evenodd"></path><path id="path3" d="M201.083 191.572 C 201.588 191.648,202.412 191.648,202.917 191.572 C 203.421 191.496,203.008 191.433,202.000 191.433 C 200.992 191.433,200.579 191.496,201.083 191.572 M125.583 192.574 C 126.179 192.648,127.154 192.648,127.750 192.574 C 128.346 192.501,127.858 192.440,126.667 192.440 C 125.475 192.440,124.987 192.501,125.583 192.574 M148.421 192.573 C 148.928 192.649,149.678 192.647,150.088 192.568 C 150.498 192.489,150.083 192.426,149.167 192.429 C 148.250 192.431,147.915 192.496,148.421 192.573 M195.000 194.833 C 194.190 195.658,193.603 196.333,193.695 196.333 C 193.786 196.333,194.524 195.658,195.333 194.833 C 196.143 194.008,196.730 193.333,196.639 193.333 C 196.547 193.333,195.810 194.008,195.000 194.833 M117.649 196.250 L 116.500 197.500 117.750 196.351 C 118.913 195.282,119.153 195.000,118.899 195.000 C 118.843 195.000,118.281 195.563,117.649 196.250 M207.091 196.667 C 207.091 197.492,207.156 197.829,207.235 197.417 C 207.315 197.004,207.315 196.329,207.235 195.917 C 207.156 195.504,207.091 195.842,207.091 196.667 M259.445 198.333 C 259.445 199.708,259.504 200.271,259.576 199.583 C 259.648 198.896,259.648 197.771,259.576 197.083 C 259.504 196.396,259.445 196.958,259.445 198.333 M197.479 199.083 L 196.500 200.167 197.583 199.188 C 198.179 198.649,198.667 198.162,198.667 198.104 C 198.667 197.847,198.392 198.074,197.479 199.083 M156.450 201.000 C 156.450 202.558,156.507 203.196,156.577 202.417 C 156.648 201.637,156.648 200.362,156.577 199.583 C 156.507 198.804,156.450 199.442,156.450 201.000 M201.417 199.500 C 201.421 200.233,201.489 200.494,201.569 200.079 C 201.649 199.665,201.646 199.065,201.562 198.746 C 201.479 198.427,201.414 198.767,201.417 199.500 M111.084 200.167 C 111.088 200.900,111.156 201.161,111.236 200.746 C 111.315 200.331,111.312 199.731,111.229 199.413 C 111.146 199.094,111.080 199.433,111.084 200.167 M254.100 200.667 C 254.100 201.675,254.162 202.088,254.239 201.583 C 254.315 201.079,254.315 200.254,254.239 199.750 C 254.162 199.246,254.100 199.658,254.100 200.667 M133.767 201.667 C 133.767 202.675,133.829 203.088,133.905 202.583 C 133.982 202.079,133.982 201.254,133.905 200.750 C 133.829 200.246,133.767 200.658,133.767 201.667 M105.445 203.000 C 105.445 204.375,105.504 204.938,105.576 204.250 C 105.648 203.563,105.648 202.438,105.576 201.750 C 105.504 201.063,105.445 201.625,105.445 203.000 M118.982 202.250 L 117.833 203.500 119.083 202.351 C 120.247 201.282,120.487 201.000,120.232 201.000 C 120.176 201.000,119.614 201.563,118.982 202.250 M150.091 202.667 C 150.091 203.492,150.156 203.829,150.235 203.417 C 150.315 203.004,150.315 202.329,150.235 201.917 C 150.156 201.504,150.091 201.842,150.091 202.667 M110.744 203.000 C 110.744 203.642,110.813 203.904,110.896 203.583 C 110.980 203.262,110.980 202.737,110.896 202.417 C 110.813 202.096,110.744 202.358,110.744 203.000 M90.744 204.000 C 90.744 204.642,90.813 204.904,90.896 204.583 C 90.980 204.262,90.980 203.737,90.896 203.417 C 90.813 203.096,90.744 203.358,90.744 204.000 M133.411 205.000 C 133.411 205.642,133.479 205.904,133.563 205.583 C 133.647 205.262,133.647 204.737,133.563 204.417 C 133.479 204.096,133.411 204.358,133.411 205.000 M128.417 206.500 C 128.421 207.233,128.489 207.494,128.569 207.079 C 128.649 206.665,128.646 206.065,128.562 205.746 C 128.479 205.427,128.414 205.767,128.417 206.500 M133.000 207.500 C 133.000 207.775,133.134 208.000,133.298 208.000 C 133.461 208.000,133.682 207.775,133.787 207.500 C 133.904 207.195,133.788 207.000,133.490 207.000 C 133.220 207.000,133.000 207.225,133.000 207.500 M109.515 208.941 C 109.233 210.213,109.463 210.677,109.931 209.779 C 110.106 209.442,110.140 208.867,110.005 208.500 C 109.796 207.929,109.726 207.991,109.515 208.941 M239.693 215.556 C 239.679 215.953,239.479 216.353,239.250 216.446 C 238.924 216.578,238.926 216.620,239.260 216.640 C 239.766 216.672,240.134 215.867,239.891 215.261 C 239.797 215.026,239.707 215.158,239.693 215.556 M236.254 216.236 C 236.669 216.315,237.269 216.312,237.587 216.229 C 237.906 216.146,237.567 216.080,236.833 216.084 C 236.100 216.088,235.839 216.156,236.254 216.236 M217.000 217.438 C 217.000 217.495,217.487 217.983,218.083 218.521 L 219.167 219.500 218.188 218.417 C 217.275 217.407,217.000 217.180,217.000 217.438 M274.587 217.902 C 275.002 217.982,275.602 217.979,275.921 217.896 C 276.239 217.812,275.900 217.747,275.167 217.751 C 274.433 217.754,274.173 217.823,274.587 217.902 M276.994 219.766 L 277.154 221.500 277.265 220.038 C 277.326 219.234,277.254 218.454,277.105 218.304 C 276.955 218.155,276.906 218.812,276.994 219.766 M194.649 221.250 L 193.500 222.500 194.750 221.351 C 195.913 220.282,196.153 220.000,195.899 220.000 C 195.843 220.000,195.281 220.563,194.649 221.250 M211.417 221.563 C 211.737 221.647,212.262 221.647,212.583 221.563 C 212.904 221.479,212.642 221.411,212.000 221.411 C 211.358 221.411,211.096 221.479,211.417 221.563 M188.433 230.667 C 188.433 231.675,188.496 232.088,188.572 231.583 C 188.648 231.079,188.648 230.254,188.572 229.750 C 188.496 229.246,188.433 229.658,188.433 230.667 M158.770 231.500 C 158.772 232.600,158.834 233.010,158.908 232.411 C 158.982 231.812,158.981 230.912,158.905 230.411 C 158.829 229.910,158.768 230.400,158.770 231.500 M224.084 230.833 C 224.088 231.567,224.156 231.827,224.236 231.413 C 224.315 230.998,224.312 230.398,224.229 230.079 C 224.146 229.761,224.080 230.100,224.084 230.833 M254.084 232.167 C 254.088 232.900,254.156 233.161,254.236 232.746 C 254.315 232.331,254.312 231.731,254.229 231.413 C 254.146 231.094,254.080 231.433,254.084 232.167 M224.084 234.167 C 224.088 234.900,224.156 235.161,224.236 234.746 C 224.315 234.331,224.312 233.731,224.229 233.413 C 224.146 233.094,224.080 233.433,224.084 234.167 M265.812 235.417 L 264.833 236.500 265.917 235.521 C 266.512 234.983,267.000 234.495,267.000 234.438 C 267.000 234.180,266.725 234.407,265.812 235.417 M182.479 236.417 L 181.500 237.500 182.523 236.579 C 183.086 236.072,183.672 235.772,183.827 235.912 C 183.981 236.052,183.999 235.979,183.867 235.750 C 183.550 235.200,183.601 235.176,182.479 236.417 M141.767 238.333 C 141.767 239.342,141.829 239.754,141.905 239.250 C 141.982 238.746,141.982 237.921,141.905 237.417 C 141.829 236.912,141.767 237.325,141.767 238.333 M169.755 236.906 C 170.261 236.982,171.011 236.980,171.421 236.901 C 171.831 236.822,171.417 236.760,170.500 236.762 C 169.583 236.765,169.248 236.829,169.755 236.906 M208.417 236.896 C 208.737 236.980,209.262 236.980,209.583 236.896 C 209.904 236.813,209.642 236.744,209.000 236.744 C 208.358 236.744,208.096 236.813,208.417 236.896 M267.151 238.083 C 265.932 239.393,265.922 239.418,267.022 238.410 C 267.676 237.812,268.288 237.399,268.383 237.494 C 268.478 237.589,268.556 237.442,268.556 237.167 C 268.556 236.525,268.671 236.449,267.151 238.083 M201.000 238.438 C 201.000 238.495,201.487 238.983,202.083 239.521 L 203.167 240.500 202.188 239.417 C 201.275 238.407,201.000 238.180,201.000 238.438 M225.667 238.771 C 225.667 238.828,226.154 239.316,226.750 239.854 L 227.833 240.833 226.854 239.750 C 225.942 238.740,225.667 238.513,225.667 238.771 M102.875 239.846 C 102.760 240.144,102.680 240.638,102.695 240.944 C 102.711 241.250,102.856 241.058,103.018 240.517 C 103.332 239.465,103.221 238.944,102.875 239.846 M189.909 241.574 C 190.501 241.648,191.551 241.649,192.243 241.577 C 192.934 241.504,192.450 241.444,191.167 241.443 C 189.883 241.441,189.317 241.500,189.909 241.574 M246.250 241.574 C 246.846 241.648,247.821 241.648,248.417 241.574 C 249.012 241.501,248.525 241.440,247.333 241.440 C 246.142 241.440,245.654 241.501,246.250 241.574 M168.417 241.909 C 169.104 241.981,170.229 241.981,170.917 241.909 C 171.604 241.838,171.042 241.779,169.667 241.779 C 168.292 241.779,167.729 241.838,168.417 241.909 M207.421 241.906 C 207.928 241.982,208.678 241.980,209.088 241.901 C 209.498 241.822,209.083 241.760,208.167 241.762 C 207.250 241.765,206.915 241.829,207.421 241.906 M231.254 241.902 C 231.669 241.982,232.269 241.979,232.587 241.896 C 232.906 241.812,232.567 241.747,231.833 241.751 C 231.100 241.754,230.839 241.823,231.254 241.902 M261.156 251.417 L 259.167 253.500 261.250 251.510 C 262.396 250.416,263.333 249.479,263.333 249.427 C 263.333 249.181,263.004 249.481,261.156 251.417 M250.091 260.333 C 250.091 261.158,250.156 261.496,250.235 261.083 C 250.315 260.671,250.315 259.996,250.235 259.583 C 250.156 259.171,250.091 259.508,250.091 260.333 M255.243 265.574 C 255.834 265.648,256.884 265.649,257.576 265.577 C 258.267 265.504,257.783 265.444,256.500 265.443 C 255.217 265.441,254.651 265.500,255.243 265.574 " stroke="none" fill="#0591b3" fill-rule="evenodd"></path><path id="path4" d="M202.333 218.167 C 201.524 218.992,200.936 219.667,201.028 219.667 C 201.120 219.667,201.857 218.992,202.667 218.167 C 203.476 217.342,204.064 216.667,203.972 216.667 C 203.880 216.667,203.143 217.342,202.333 218.167 " stroke="none" fill="#a4a5d4" fill-rule="evenodd"></path></g></svg>